<?xml version="1.0" encoding="UTF-8" standalone="no"?>
<!DOCTYPE svg PUBLIC "-//W3C//DTD SVG 1.0//EN" "http://www.w3.org/TR/2001/REC-SVG-20010904/DTD/svg10.dtd">
<svg
   xmlns:svg="http://www.w3.org/2000/svg"
   xmlns="http://www.w3.org/2000/svg"
   version="1.0"
   width="1024"
   height="597"
   viewBox="-1.59018003 -1.59018003 96.16536106 47.38436106"
   id="svg2474">
  <defs
     id="defs2476">
    <linearGradient
       x1="46.492699"
       y1="0"
       x2="46.492699"
       y2="53.006302"
       id="SVGID_1_"
       gradientUnits="userSpaceOnUse">
	<stop
   id="stop2461"
   style="stop-color:#f79810;stop-opacity:1"
   offset="0" />

	<stop
   id="stop2463"
   style="stop-color:#f8310e;stop-opacity:1"
   offset="1" />

</linearGradient>
  </defs>
  <path
     d="M 1.053,24.152 C 0.859,24.152 0.705,24.302 0.68,24.516 L 0,29.681 L 0.68,34.757 C 0.705,34.971 0.859,35.12 1.053,35.12 C 1.241,35.12 1.394,34.972 1.424,34.759 L 1.424,34.759 L 1.424,34.758 C 1.424,34.758 1.424,34.758 1.424,34.759 L 2.23,29.681 L 1.424,24.515 C 1.395,24.302 1.24,24.152 1.053,24.152 z M 4.877,21.33 C 4.845,21.108 4.686,20.955 4.49,20.955 C 4.293,20.955 4.13,21.113 4.103,21.33 C 4.103,21.332 3.189,29.681 3.189,29.681 L 4.103,37.847 C 4.129,38.066 4.292,38.224 4.49,38.224 C 4.685,38.224 4.844,38.07 4.876,37.849 L 5.916,29.681 L 4.877,21.33 z M 19.281,13.627 C 18.906,13.627 18.596,13.934 18.578,14.324 L 17.85,29.688 L 18.578,39.617 C 18.597,40.005 18.906,40.311 19.281,40.311 C 19.654,40.311 19.963,40.004 19.985,39.615 L 19.985,39.618 L 20.808,29.688 L 19.985,14.324 C 19.963,13.934 19.654,13.627 19.281,13.627 z M 11.826,18.967 C 11.538,18.967 11.303,19.197 11.28,19.504 L 10.46,29.684 L 11.28,39.533 C 11.302,39.838 11.538,40.068 11.826,40.068 C 12.111,40.068 12.346,39.838 12.371,39.533 L 13.303,29.684 L 12.371,19.502 C 12.346,19.197 12.111,18.967 11.826,18.967 z M 26.857,40.31 C 27.322,40.31 27.7,39.935 27.719,39.455 L 28.433,29.693 L 27.72,9.238 C 27.701,8.758 27.323,8.383 26.858,8.383 C 26.389,8.383 26.01,8.759 25.995,9.239 C 25.995,9.24 25.362,29.692 25.362,29.692 L 25.995,39.458 C 26.01,39.934 26.389,40.31 26.857,40.31 z M 42.367,40.356 C 43.007,40.356 43.535,39.829 43.547,39.181 L 43.547,39.188 L 43.547,39.181 L 44.045,29.699 L 43.547,6.075 C 43.536,5.428 43.007,4.9 42.367,4.9 C 41.726,4.9 41.197,5.427 41.187,6.076 L 40.742,29.691 C 40.742,29.706 41.187,39.187 41.187,39.187 C 41.197,39.829 41.727,40.356 42.367,40.356 z M 34.553,40.319 C 35.11,40.319 35.559,39.872 35.574,39.302 L 35.574,39.309 L 36.18,29.695 L 35.573,9.092 C 35.558,8.522 35.109,8.076 34.552,8.076 C 33.991,8.076 33.542,8.522 33.53,9.092 L 32.991,29.696 L 33.531,39.308 C 33.543,39.872 33.992,40.319 34.553,40.319 z M 15.539,40.229 C 15.87,40.229 16.138,39.964 16.163,39.615 L 17.041,29.684 L 16.163,20.237 C 16.139,19.888 15.871,19.625 15.539,19.625 C 15.203,19.625 14.935,19.89 14.914,20.241 L 14.141,29.684 L 14.914,39.614 C 14.936,39.964 15.203,40.229 15.539,40.229 z M 8.143,39.685 C 8.385,39.685 8.581,39.494 8.609,39.23 L 9.595,29.682 L 8.61,19.774 C 8.581,19.509 8.385,19.318 8.143,19.318 C 7.898,19.318 7.702,19.51 7.677,19.774 C 7.677,19.775 6.809,29.682 6.809,29.682 L 7.677,39.228 C 7.701,39.493 7.897,39.685 8.143,39.685 z M 38.445,8.749 C 37.84,8.749 37.355,9.23 37.343,9.846 L 36.851,29.697 L 37.343,39.249 C 37.355,39.857 37.839,40.338 38.445,40.338 C 39.049,40.338 39.531,39.858 39.545,39.242 L 39.545,39.25 L 40.097,29.698 L 39.545,9.844 C 39.531,9.23 39.049,8.749 38.445,8.749 z M 23.055,40.33 C 23.473,40.33 23.818,39.989 23.838,39.554 L 24.606,29.691 L 23.838,10.813 C 23.817,10.377 23.473,10.037 23.055,10.037 C 22.633,10.037 22.289,10.378 22.271,10.813 C 22.271,10.814 21.591,29.691 21.591,29.691 L 22.272,39.558 C 22.289,39.989 22.633,40.33 23.055,40.33 z M 31.631,39.399 L 31.631,39.394 L 32.291,29.694 L 31.631,8.55 C 31.615,8.025 31.201,7.613 30.69,7.613 C 30.176,7.613 29.762,8.024 29.748,8.55 L 29.162,29.693 L 29.749,39.398 C 29.763,39.918 30.177,40.329 30.69,40.329 C 31.202,40.329 31.614,39.918 31.631,39.395 L 31.631,39.399 z M 81.549,17.506 C 79.982,17.506 78.487,17.823 77.125,18.394 C 76.215,8.086 67.571,0 57.027,0 C 54.447,0 51.932,0.508 49.711,1.367 C 48.848,1.701 48.618,2.045 48.61,2.712 L 48.61,39.012 C 48.619,39.712 49.162,40.295 49.845,40.364 C 49.874,40.367 81.344,40.383 81.548,40.383 C 87.864,40.383 92.985,35.262 92.985,28.945 C 92.985,22.628 87.865,17.506 81.549,17.506 z M 46.272,2.68 C 45.585,2.68 45.021,3.244 45.011,3.937 L 44.495,29.702 L 45.012,39.053 C 45.021,39.736 45.585,40.299 46.272,40.299 C 46.957,40.299 47.521,39.736 47.531,39.043 L 47.531,39.054 L 48.092,29.702 L 47.531,3.935 C 47.521,3.244 46.957,2.68 46.272,2.68 z"
     id="path2465"
     style="fill:url(#SVGID_1_)" />
</svg>
